<mxfile host="app.diagrams.net" modified="2022-06-28T13:36:03.871Z" agent="5.0 (Windows NT 10.0; Win64; x64) AppleWebKit/537.36 (KHTML, like Gecko) Chrome/102.0.0.0 Safari/537.36" etag="4GiNgiY_pgVbVe4Rucqu" version="20.0.3" type="github">
  <diagram id="3L6O_lImzKorQvmIJOO7" name="第 1 页">
    <mxGraphModel dx="2062" dy="1122" grid="1" gridSize="10" guides="1" tooltips="1" connect="1" arrows="1" fold="1" page="1" pageScale="1" pageWidth="827" pageHeight="1169" math="0" shadow="0">
      <root>
        <mxCell id="0" />
        <mxCell id="1" parent="0" />
        <mxCell id="mh9Fd2oe_hD2y2MzJxfC-1" value="" style="endArrow=none;dashed=1;html=1;dashPattern=1 3;strokeWidth=2;rounded=0;" edge="1" parent="1">
          <mxGeometry width="50" height="50" relative="1" as="geometry">
            <mxPoint x="80" y="310" as="sourcePoint" />
            <mxPoint x="740" y="310" as="targetPoint" />
          </mxGeometry>
        </mxCell>
        <mxCell id="mh9Fd2oe_hD2y2MzJxfC-2" value="" style="endArrow=none;dashed=1;html=1;dashPattern=1 3;strokeWidth=2;rounded=0;" edge="1" parent="1">
          <mxGeometry width="50" height="50" relative="1" as="geometry">
            <mxPoint x="84" y="480" as="sourcePoint" />
            <mxPoint x="744" y="480" as="targetPoint" />
          </mxGeometry>
        </mxCell>
        <mxCell id="mh9Fd2oe_hD2y2MzJxfC-3" value="" style="endArrow=none;dashed=1;html=1;dashPattern=1 3;strokeWidth=2;rounded=0;" edge="1" parent="1">
          <mxGeometry width="50" height="50" relative="1" as="geometry">
            <mxPoint x="60" y="685" as="sourcePoint" />
            <mxPoint x="720" y="685" as="targetPoint" />
            <Array as="points">
              <mxPoint x="380" y="685" />
            </Array>
          </mxGeometry>
        </mxCell>
        <mxCell id="mh9Fd2oe_hD2y2MzJxfC-4" value="用户态" style="text;strokeColor=none;fillColor=none;align=left;verticalAlign=middle;spacingLeft=4;spacingRight=4;overflow=hidden;points=[[0,0.5],[1,0.5]];portConstraint=eastwest;rotatable=0;" vertex="1" parent="1">
          <mxGeometry x="760" y="290" width="80" height="30" as="geometry" />
        </mxCell>
        <mxCell id="mh9Fd2oe_hD2y2MzJxfC-5" value="内核态" style="text;strokeColor=none;fillColor=none;align=left;verticalAlign=middle;spacingLeft=4;spacingRight=4;overflow=hidden;points=[[0,0.5],[1,0.5]];portConstraint=eastwest;rotatable=0;" vertex="1" parent="1">
          <mxGeometry x="760" y="460" width="80" height="30" as="geometry" />
        </mxCell>
        <mxCell id="mh9Fd2oe_hD2y2MzJxfC-6" value="DMA" style="text;strokeColor=none;fillColor=none;align=left;verticalAlign=middle;spacingLeft=4;spacingRight=4;overflow=hidden;points=[[0,0.5],[1,0.5]];portConstraint=eastwest;rotatable=0;" vertex="1" parent="1">
          <mxGeometry x="740" y="675" width="80" height="30" as="geometry" />
        </mxCell>
        <mxCell id="mh9Fd2oe_hD2y2MzJxfC-16" style="edgeStyle=orthogonalEdgeStyle;rounded=0;orthogonalLoop=1;jettySize=auto;html=1;fontSize=14;" edge="1" parent="1" source="mh9Fd2oe_hD2y2MzJxfC-7" target="mh9Fd2oe_hD2y2MzJxfC-12">
          <mxGeometry relative="1" as="geometry">
            <mxPoint x="190" y="490" as="targetPoint" />
            <Array as="points">
              <mxPoint x="230" y="500" />
              <mxPoint x="230" y="500" />
            </Array>
          </mxGeometry>
        </mxCell>
        <mxCell id="mh9Fd2oe_hD2y2MzJxfC-18" value="从磁盘缓冲区&lt;br&gt;复制到&lt;br&gt;内核缓存" style="edgeLabel;html=1;align=center;verticalAlign=middle;resizable=0;points=[];fontSize=14;fontColor=#FF0516;" vertex="1" connectable="0" parent="mh9Fd2oe_hD2y2MzJxfC-16">
          <mxGeometry x="0.2222" y="-5" relative="1" as="geometry">
            <mxPoint y="40" as="offset" />
          </mxGeometry>
        </mxCell>
        <mxCell id="mh9Fd2oe_hD2y2MzJxfC-7" value="&lt;b&gt;&lt;font style=&quot;font-size: 22px;&quot;&gt;磁盘&lt;/font&gt;&lt;/b&gt;" style="rounded=1;whiteSpace=wrap;html=1;strokeWidth=2;fillWeight=4;hachureGap=8;hachureAngle=45;fillColor=#1ba1e2;sketch=1;" vertex="1" parent="1">
          <mxGeometry x="130" y="610" width="120" height="60" as="geometry" />
        </mxCell>
        <mxCell id="mh9Fd2oe_hD2y2MzJxfC-11" style="edgeStyle=orthogonalEdgeStyle;rounded=0;orthogonalLoop=1;jettySize=auto;html=1;exitX=0;exitY=0.5;exitDx=0;exitDy=0;fontSize=22;" edge="1" parent="1" source="mh9Fd2oe_hD2y2MzJxfC-10" target="mh9Fd2oe_hD2y2MzJxfC-12">
          <mxGeometry relative="1" as="geometry">
            <mxPoint x="190" y="370" as="targetPoint" />
            <Array as="points">
              <mxPoint x="190" y="140" />
            </Array>
          </mxGeometry>
        </mxCell>
        <mxCell id="mh9Fd2oe_hD2y2MzJxfC-13" value="调用SendFile" style="edgeLabel;html=1;align=center;verticalAlign=middle;resizable=0;points=[];fontSize=22;" vertex="1" connectable="0" parent="mh9Fd2oe_hD2y2MzJxfC-11">
          <mxGeometry x="0.1417" y="3" relative="1" as="geometry">
            <mxPoint as="offset" />
          </mxGeometry>
        </mxCell>
        <mxCell id="mh9Fd2oe_hD2y2MzJxfC-14" value="&lt;font style=&quot;font-size: 14px;&quot;&gt;切换上下文到内核态&lt;/font&gt;" style="edgeLabel;html=1;align=center;verticalAlign=middle;resizable=0;points=[];fontSize=22;fontColor=#0820FF;" vertex="1" connectable="0" parent="mh9Fd2oe_hD2y2MzJxfC-11">
          <mxGeometry x="0.3917" y="-1" relative="1" as="geometry">
            <mxPoint as="offset" />
          </mxGeometry>
        </mxCell>
        <mxCell id="mh9Fd2oe_hD2y2MzJxfC-10" value="用户进程" style="ellipse;whiteSpace=wrap;html=1;strokeWidth=2;fillWeight=2;hachureGap=8;fillColor=#f8cecc;fillStyle=dots;sketch=1;fontSize=22;strokeColor=#b85450;" vertex="1" parent="1">
          <mxGeometry x="330" y="120" width="120" height="60" as="geometry" />
        </mxCell>
        <mxCell id="mh9Fd2oe_hD2y2MzJxfC-15" style="edgeStyle=orthogonalEdgeStyle;rounded=0;orthogonalLoop=1;jettySize=auto;html=1;exitX=0.5;exitY=1;exitDx=0;exitDy=0;fontSize=14;" edge="1" parent="1" source="mh9Fd2oe_hD2y2MzJxfC-12" target="mh9Fd2oe_hD2y2MzJxfC-7">
          <mxGeometry relative="1" as="geometry">
            <Array as="points">
              <mxPoint x="160" y="430" />
            </Array>
          </mxGeometry>
        </mxCell>
        <mxCell id="mh9Fd2oe_hD2y2MzJxfC-17" value="向磁盘&lt;br&gt;请求数据" style="edgeLabel;html=1;align=center;verticalAlign=middle;resizable=0;points=[];fontSize=14;" vertex="1" connectable="0" parent="mh9Fd2oe_hD2y2MzJxfC-15">
          <mxGeometry x="0.0067" y="1" relative="1" as="geometry">
            <mxPoint y="54" as="offset" />
          </mxGeometry>
        </mxCell>
        <mxCell id="mh9Fd2oe_hD2y2MzJxfC-38" style="edgeStyle=orthogonalEdgeStyle;rounded=0;orthogonalLoop=1;jettySize=auto;html=1;exitX=1;exitY=0.5;exitDx=0;exitDy=0;entryX=0;entryY=0.5;entryDx=0;entryDy=0;fontSize=14;fontColor=#FF0516;" edge="1" parent="1" source="mh9Fd2oe_hD2y2MzJxfC-12" target="mh9Fd2oe_hD2y2MzJxfC-21">
          <mxGeometry relative="1" as="geometry" />
        </mxCell>
        <mxCell id="mh9Fd2oe_hD2y2MzJxfC-39" value="从内核缓冲复制到socket" style="edgeLabel;html=1;align=center;verticalAlign=middle;resizable=0;points=[];fontSize=14;fontColor=#FF0516;" vertex="1" connectable="0" parent="mh9Fd2oe_hD2y2MzJxfC-38">
          <mxGeometry x="-0.1238" y="-4" relative="1" as="geometry">
            <mxPoint x="-3" y="-4" as="offset" />
          </mxGeometry>
        </mxCell>
        <mxCell id="mh9Fd2oe_hD2y2MzJxfC-12" value="PageCache" style="rounded=1;whiteSpace=wrap;html=1;strokeWidth=2;fillWeight=4;hachureGap=8;hachureAngle=45;fillColor=#dae8fc;sketch=1;fontSize=22;strokeColor=#6c8ebf;" vertex="1" parent="1">
          <mxGeometry x="130" y="370" width="120" height="60" as="geometry" />
        </mxCell>
        <mxCell id="mh9Fd2oe_hD2y2MzJxfC-30" style="edgeStyle=orthogonalEdgeStyle;rounded=0;orthogonalLoop=1;jettySize=auto;html=1;entryX=0.5;entryY=0;entryDx=0;entryDy=0;fontSize=14;" edge="1" parent="1" source="mh9Fd2oe_hD2y2MzJxfC-21" target="mh9Fd2oe_hD2y2MzJxfC-29">
          <mxGeometry relative="1" as="geometry" />
        </mxCell>
        <mxCell id="mh9Fd2oe_hD2y2MzJxfC-31" value="从内核层复制到网卡" style="edgeLabel;html=1;align=center;verticalAlign=middle;resizable=0;points=[];fontSize=14;fontColor=#FF0516;" vertex="1" connectable="0" parent="mh9Fd2oe_hD2y2MzJxfC-30">
          <mxGeometry x="-0.1928" y="-1" relative="1" as="geometry">
            <mxPoint as="offset" />
          </mxGeometry>
        </mxCell>
        <mxCell id="mh9Fd2oe_hD2y2MzJxfC-35" style="edgeStyle=orthogonalEdgeStyle;rounded=0;orthogonalLoop=1;jettySize=auto;html=1;fontSize=14;" edge="1" parent="1" source="mh9Fd2oe_hD2y2MzJxfC-21" target="mh9Fd2oe_hD2y2MzJxfC-10">
          <mxGeometry relative="1" as="geometry">
            <mxPoint x="490" y="220" as="targetPoint" />
            <Array as="points">
              <mxPoint x="590" y="140" />
            </Array>
          </mxGeometry>
        </mxCell>
        <mxCell id="mh9Fd2oe_hD2y2MzJxfC-36" value="内核态切&lt;br&gt;换为用户态" style="edgeLabel;html=1;align=center;verticalAlign=middle;resizable=0;points=[];fontSize=14;fontColor=#0820FF;" vertex="1" connectable="0" parent="mh9Fd2oe_hD2y2MzJxfC-35">
          <mxGeometry x="-0.2364" relative="1" as="geometry">
            <mxPoint y="-30" as="offset" />
          </mxGeometry>
        </mxCell>
        <mxCell id="mh9Fd2oe_hD2y2MzJxfC-21" value="&lt;font style=&quot;font-size: 20px;&quot;&gt;socket Buffer&lt;/font&gt;" style="rounded=1;whiteSpace=wrap;html=1;strokeWidth=2;fillWeight=4;hachureGap=8;hachureAngle=45;fillColor=#fff2cc;sketch=1;fontSize=14;strokeColor=#d6b656;" vertex="1" parent="1">
          <mxGeometry x="530" y="370" width="120" height="60" as="geometry" />
        </mxCell>
        <mxCell id="mh9Fd2oe_hD2y2MzJxfC-33" style="edgeStyle=orthogonalEdgeStyle;rounded=0;orthogonalLoop=1;jettySize=auto;html=1;entryX=1;entryY=0.5;entryDx=0;entryDy=0;fontSize=14;" edge="1" parent="1" source="mh9Fd2oe_hD2y2MzJxfC-29" target="mh9Fd2oe_hD2y2MzJxfC-21">
          <mxGeometry relative="1" as="geometry">
            <Array as="points">
              <mxPoint x="670" y="645" />
              <mxPoint x="670" y="400" />
            </Array>
          </mxGeometry>
        </mxCell>
        <mxCell id="mh9Fd2oe_hD2y2MzJxfC-34" value="操作成功" style="edgeLabel;html=1;align=center;verticalAlign=middle;resizable=0;points=[];fontSize=14;" vertex="1" connectable="0" parent="mh9Fd2oe_hD2y2MzJxfC-33">
          <mxGeometry x="-0.0807" y="1" relative="1" as="geometry">
            <mxPoint as="offset" />
          </mxGeometry>
        </mxCell>
        <mxCell id="mh9Fd2oe_hD2y2MzJxfC-29" value="&lt;b&gt;&lt;font style=&quot;font-size: 22px;&quot;&gt;网卡&lt;/font&gt;&lt;/b&gt;" style="rounded=1;whiteSpace=wrap;html=1;strokeWidth=2;fillWeight=4;hachureGap=8;hachureAngle=45;fillColor=#1ba1e2;sketch=1;" vertex="1" parent="1">
          <mxGeometry x="530" y="615" width="120" height="60" as="geometry" />
        </mxCell>
        <mxCell id="mh9Fd2oe_hD2y2MzJxfC-40" value="" style="endArrow=classic;html=1;rounded=0;fontSize=14;fontColor=#FF0516;exitX=1;exitY=0.5;exitDx=0;exitDy=0;entryX=0;entryY=0.5;entryDx=0;entryDy=0;fontStyle=1;strokeColor=#FF0516;" edge="1" parent="1" source="mh9Fd2oe_hD2y2MzJxfC-12" target="mh9Fd2oe_hD2y2MzJxfC-29">
          <mxGeometry width="50" height="50" relative="1" as="geometry">
            <mxPoint x="390" y="420" as="sourcePoint" />
            <mxPoint x="440" y="370" as="targetPoint" />
          </mxGeometry>
        </mxCell>
        <mxCell id="mh9Fd2oe_hD2y2MzJxfC-41" value="使用SG DMA&lt;br&gt;直接复制到网卡" style="edgeLabel;html=1;align=center;verticalAlign=middle;resizable=0;points=[];fontSize=14;fontColor=#FF0516;" vertex="1" connectable="0" parent="mh9Fd2oe_hD2y2MzJxfC-40">
          <mxGeometry x="-0.1097" y="-3" relative="1" as="geometry">
            <mxPoint as="offset" />
          </mxGeometry>
        </mxCell>
      </root>
    </mxGraphModel>
  </diagram>
</mxfile>
